<?xml version="1.0" encoding="utf-8"?>
<!DOCTYPE svg PUBLIC "-//W3C//DTD SVG 1.1//EN" "http://www.w3.org/Graphics/SVG/1.1/DTD/svg11.dtd">
<svg version="1.1" xmlns="http://www.w3.org/2000/svg" xmlns:xlink="http://www.w3.org/1999/xlink" width="100%" height="100%" viewBox="0 0 300 300">
<path d="M148.67,262.71l-3-222.65l-128.66-1l23,45.33l57.66,0.33l2.33,33l-39.33,1.33l14,30.67l30.67,1.66l6.33,90L148.67,262.71z
	 M151.34,262.71l36.99-21.33l6.34-90l30.66-1.66l14-30.67L200,117.72l2.33-33L260,84.39l22.99-45.33l-128.66,1L151.34,262.71z
	 M295.96,31.75c3.67,5-85.99,232.32-91.33,235.99c-3.35,1.51-29,2.09-54.63,2.09s-51.28-0.58-54.63-2.09
	c-5.34-3.67-95-230.99-91.33-235.99c4.63-0.82,75.3-1.4,145.96-1.57C220.66,30.35,291.33,30.93,295.96,31.75z"/>
</svg>
